<svg xmlns="http://www.w3.org/2000/svg" viewBox="0 0 1240 1000"><path stroke="#3351F0" stroke-width="42" fill="#3351F0" d="M776.1 482.9c68.4-49 111.2-127.8 111.2-211.3C887.3 127.4 770.9 10 627.8 10c-82.3 0-155.7 38.6-203.5 98.7-19.4-5.2-39.6-8.3-60.5-8.3-131.2 0-237.9 107.1-237.9 238.8 0 76.3 34.1 145.3 90.3 189.3-97.8 49.1-162 148.3-162 259.1V961c0 16.1 13 29.1 29.1 29.1h833.4c16.1 0 29.1-13 29.1-29.1V769.1c0-125.9-66.1-233.9-169.7-286.2zM112.4 787.6c0-104 75.1-198.7 178.7-225.3 12.2-3.2 21-13.8 21.8-26.4.8-12.6-6.6-24.2-18.3-28.9C227.4 480.5 184 414.6 184 339.2c0-99.6 80.6-180.6 179.8-180.6 9.6 0 19.1.8 28.3 2.4-15.8 33.7-24.8 71.1-24.8 110.7 0 85.5 38.8 162.6 102.6 210.6-110.3 53.1-183 163.5-183 286.8v162.7H112.4zm775.2 144.2H345V769.1c0-116.7 84.6-223.2 201.1-253.1 12.2-3.1 21-13.8 21.8-26.3.8-12.6-6.6-24.2-18.3-28.9-75.5-29.8-124.3-104.1-124.3-189.1 0-112.2 90.8-203.5 202.4-203.5 111.1 0 201.4 91.3 201.4 203.5 0 81.7-53.5 157.7-133.1 189.1-11.7 4.6-19.1 16.3-18.3 28.9.8 12.6 9.6 23.2 21.8 26.3C812 544.9 887.6 646.6 887.6 769.1z"/><path stroke="#3351F0" stroke-width="42" fill="#3351F0" d="M463.9 482.9c-68.4-49-111.2-127.8-111.2-211.3C352.7 127.4 469.1 10 612.2 10c82.3 0 155.7 38.6 203.5 98.7 19.4-5.2 39.6-8.3 60.5-8.3 131.2 0 237.9 107.1 237.9 238.8 0 76.3-34.1 145.3-90.3 189.3 97.8 49.1 162 148.3 162 259.1V961c0 16.1-13 29.1-29.1 29.1H323.3c-16.1 0-29.1-13-29.1-29.1V769.1c0-125.9 66.1-233.9 169.7-286.2zm663.7 304.7c0-104-75.1-198.7-178.7-225.3-12.2-3.2-21-13.8-21.8-26.4-.8-12.6 6.6-24.2 18.3-28.9 67.2-26.5 110.6-92.4 110.6-167.8 0-99.6-80.6-180.6-179.8-180.6-9.6 0-19.1.8-28.3 2.4 15.8 33.7 24.8 71.1 24.8 110.7 0 85.5-38.8 162.6-102.6 210.6 110.3 53.1 183 163.5 183 286.8v162.7h174.5zM352.4 931.8H895V769.1c0-116.7-84.6-223.2-201.1-253.1-12.2-3.1-21-13.8-21.8-26.3-.8-12.6 6.6-24.2 18.3-28.9 75.5-29.8 124.3-104.1 124.3-189.1 0-112.2-90.8-203.5-202.4-203.5-111.1 0-201.4 91.3-201.4 203.5 0 81.7 53.5 157.7 133.1 189.1 11.7 4.6 19.1 16.3 18.3 28.9-.8 12.6-9.6 23.2-21.8 26.3C428 544.9 352.4 646.6 352.4 769.1z"/></svg>